# AST/ASF file generated using VICON BodyLanguage
# -----------------------------------------------
:version 1.10
:name VICON
:units
  mass 1.0
  length 0.45
  angle deg
:documentation
   .ast/.asf automatically generated from VICON data using
   VICON BodyBuilder and BodyLanguage model FoxedUp or BRILLIANT.MOD
:root
   order TX TY TZ RX RY RZ
   axis XYZ
   position 0 0 0  
   orientation 0 0 0 
:bonedata
  begin
     id 1 
     name lhipjoint
     direction 0.541323 -0.757556 0.364798 
     length 2.47576 
     axis 0 0 0  XYZ
  end
  begin
     id 2 
     name lfemur
     direction 0.34202 -0.939693 0  
     length 7.46493  
     axis 0 0 20  XYZ
    dof rx ry rz
    limits (-160.0 20.0)
           (-70.0 70.0)
           (-60.0 70.0)
  end
  begin
     id 3 
     name ltibia
     direction 0.34202 -0.939693 0   
     length 7.73805   
     axis 0 0 20   XYZ
    dof rx
    limits (-10.0 170.0)
  end
  begin
     id 4 
     name lfoot
     direction 0.107174 -0.294458 0.949636   
     length 2.25864   
     axis -90 7.62852e-016 20   XYZ
    dof rx rz
    limits (-45.0 90.0)
           (-70.0 20.0)
  end
  begin
     id 5 
     name ltoes
     direction 1.53606e-011 -4.21934e-011 1   
     length 1.12451   
     axis -90 7.62852e-016 20   XYZ
    dof rx
    limits (-90.0 20.0)
  end
  begin
     id 6 
     name rhipjoint
     direction -0.524745 -0.766967 0.36933   
     length 2.44538  
     axis 0 0 0  XYZ 
  end
  begin
     id 7 
     name rfemur
     direction -0.34202 -0.939693 0   
     length 7.61604   
     axis 0 0 -20   XYZ
    dof rx ry rz
    limits (-160.0 20.0)
           (-70.0 70.0)
           (-70.0 60.0)
  end
  begin
     id 8 
     name rtibia
     direction -0.34202 -0.939693 0   
     length 7.61056   
     axis 0 0 -20   XYZ
    dof rx
    limits (-10.0 170.0)
 end
 begin
     id 9 
     name rfoot
     direction -0.12616 -0.346623 0.929482   
     length 2.46372  
     axis -90 -7.62852e-016 -20   XYZ
    dof rx rz
    limits (-45.0 90.0)
           (-20.0 70.0)
  end
  begin
     id 10 
     name rtoes
     direction -1.53531e-011 -4.22004e-011 1   
     length 1.21611   
     axis -90 -7.62852e-016 -20   XYZ
    dof rx
    limits (-90.0 20.0)
  end
  begin
     id 11 
     name lowerback
     direction -0.000778023 0.997293 -0.0735223   
     length 2.06139   
     axis 0 0 0   XYZ
    dof rx ry rz
    limits (-20.0 45.0)
           (-30.0 30.0)
           (-30.0 30.0)
  end
  begin
     id 12 
     name upperback
     direction 0.0222598 0.999722 -0.0078355   
     length 2.06383   
     axis 0 0 0   XYZ
    dof rx ry rz
    limits (-20.0 45.0)
           (-30.0 30.0)
           (-30.0 30.0)
  end
  begin
     id 13 
     name thorax
     direction 0.0219654 0.999405 0.0265994   
     length 2.07163   
     axis 0 0 0   XYZ
    dof rx ry rz
    limits (-20.0 45.0)
           (-30.0 30.0)
           (-30.0 30.0)
  end
  begin
     id 14 
     name lowerneck
     direction 0.0213282 0.988147 0.15202   
     length 1.75969   
     axis 0 0 0   XYZ
    dof rx ry rz
    limits (-20.0 45.0)
           (-30.0 30.0)
           (-30.0 30.0)
  end
  begin
     id 15 
     name upperneck
     direction -0.0546456 0.982624 -0.177379   
     length 1.79244   
     axis 0 0 0   XYZ
    dof rx ry rz
    limits (-20.0 45.0)
           (-30.0 30.0)
           (-30.0 30.0)
  end
  begin
     id 16
     name head
     direction -0.0199987 0.996855 -0.076686  
     length 1.80555  
     axis 0 0 0   XYZ
    dof rx ry rz
    limits (-20.0 45.0)
           (-30.0 30.0)
           (-30.0 30.0)
  end
  begin
     id 17 
     name lclavicle
     direction 0.929565 0.363219 -0.063096  
     length 3.55722  
     axis 0 0 0   XYZ
    dof ry rz
    limits (-20.0 10.0)
           (0.0 20.0)
  end
  begin
     id 18 
     name lhumerus
     direction 1 -4.48993e-011 -2.36203e-027   
     length 4.92785   
     axis 180 -30 -90   XYZ
    dof rx ry rz
    limits (-60.0 90.0)
           (-90.0 90.0)
           (-90.0 90.0)
  end
  begin
     id 19
     name lradius
     direction 1 -4.48947e-011 2.02997e-027   
     length 3.44052   
     axis 180 -30 -90   XYZ
    dof rx
    limits (-10.0 170.0)
  end
  begin
     id 20
     name lwrist
     direction 1 -4.48962e-011 1.45991e-027   
     length 1.72026   
     axis 1.49639e-024 90 90   XYZ
    dof ry
    limits (-180.0 0.0)
 end
  begin
     id 21 
     name lhand
     direction 1 -4.48984e-011 2.91906e-027   
     length 0.654326   
     axis -1.863e-015 90 90   XYZ
    dof rx rz
    limits (-90.0 90.0)
           (-45.0 45.0)
  end
  begin
     id 22 
     name lfingers
     direction 1 -4.48961e-011 5.83968e-027   
     length 0.527534   
     axis -3.72598e-015 90 90   XYZ
    dof rx
    limits (0.0 90.0)
  end
  begin
     id 23
     name lthumb
     direction 0.707107 -6.34963e-011 0.707107   
     length 0.757437   
     axis -90 45 -6.68868e-015   XYZ
    dof rx rz
    limits (-45.0 45.0)
           (-45.0 45.0)
  end
  begin
     id 24 
     name rclavicle
     direction -0.902944 0.422599 -0.0781198   
     length 3.54432  
     axis 0 0 0   XYZ 
    dof ry rz
    limits (-10.0 20.0)
           (-20.0 0.0)
  end
  begin
     id 25 
     name rhumerus
     direction -1 -4.48953e-011 -4.75835e-028  
     length 5.09181   
     axis 180 30 90   XYZ
    dof rx ry rz
    limits (-90.0 60.0)
           (-90.0 90.0)
           (-90.0 90.0)
  end
  begin
     id 26 
     name rradius
     direction -1 -4.48986e-011 -3.25889e-027   
     length 3.49865   
     axis 180 30 90   XYZ
    dof rx
    limits (-10.0 170.0)
  end
  begin
     id 27 
     name rwrist
     direction -1 -4.48963e-011 1.45989e-027   
     length 1.74933   
     axis 1.49639e-024 -90 -90   XYZ
    dof ry
    limits (-180.0 0.0)
  end
  begin
     id 28
     name rhand
     direction -1 -4.49003e-011 2.91844e-027   
     length 0.66641   
     axis -1.863e-015 -90 -90   XYZ
    dof rx rz
    limits (-90.0 90.0)
           (-45.0 45.0)
  end
  begin
     id 29
     name rfingers
     direction -1 -4.48973e-011 5.83886e-027   
     length 0.537277   
     axis -3.72598e-015 -90 -90   XYZ
    dof rx
    limits (0.0 90.0)
  end
  begin
     id 30
     name rthumb
     direction -0.707107 -6.34976e-011 0.707107   
     length 0.771425   
     axis -90 -45 6.68868e-015   XYZ
    dof rx rz
    limits (-45.0 45.0)
           (-45.0 45.0)
  end
:hierarchy
  begin
    root lhipjoint rhipjoint lowerback
    lhipjoint lfemur
    lfemur ltibia
    ltibia lfoot
    lfoot ltoes
    rhipjoint rfemur
    rfemur rtibia
    rtibia rfoot
    rfoot rtoes
    lowerback upperback
    upperback thorax
    thorax lowerneck lclavicle rclavicle
    lowerneck upperneck
    upperneck head
    lclavicle lhumerus
    lhumerus lradius
    lradius lwrist
    lwrist lhand lthumb
    lhand lfingers
    rclavicle rhumerus
    rhumerus rradius
    rradius rwrist
    rwrist rhand rthumb
    rhand rfingers
  end

#!OML:ASF H:\LiuWeirdWalks\Patient Classification 1\Patient 1\Session 1\male.ASF
:FULLY-SPECIFIED
:DEGREES
240
root 1.5801 18.0823 -28.6659 0.958462 14.4307 1.62071
lowerback 5.53812 -2.94533 -15.3852
upperback 0.897666 -4.78103 2.54544
thorax -0.669807 -2.40487 11.6814
lowerneck -19.9241 6.67188 5.957
upperneck 25.1505 11.0008 -11.3495
head 12.7149 4.03474 -3.43546
rclavicle -1.78161e-014 -2.71838e-014
rhumerus -29.312 1.11781 -75.6705
rradius 23.9764
rwrist -4.01601
rhand -15.9689 -3.38743
rfingers 7.12502
rthumb 10.2301 -33.1187
lclavicle -1.78161e-014 -2.71838e-014
lhumerus -40.783 19.8074 81.2955
lradius 29.3194
lwrist 7.61761
lhand -15.6202 0.408277
lfingers 7.12502
lthumb 10.5665 30.1227
rfemur -33.4295 -7.61515 11.2458
rtibia 26.1534
rfoot 13.1132 -19.3708
rtoes -6.16241
lfemur 9.55081 -3.30875 -24.073
ltibia 8.40914
lfoot -6.09232 4.86805
ltoes -13.3601
241
root 1.56686 18.0797 -28.6173 0.982359 14.5037 1.66924
lowerback 5.49581 -2.95608 -15.4413
upperback 0.863063 -4.79436 2.53025
thorax -0.675967 -2.40867 11.6953
lowerneck -19.7761 6.72144 6.06352
upperneck 25.067 11.0669 -11.4602
head 12.6737 4.06904 -3.48489
rclavicle -1.55238e-014 3.17559e-014
rhumerus -29.3283 1.24144 -75.6175
rradius 24.0851
rwrist -4.15311
rhand -15.9965 -3.40213
rfingers 7.12502
rthumb 10.2035 -33.1347
lclavicle -1.55238e-014 3.17559e-014
lhumerus -40.985 19.9301 81.2124
lradius 29.2352
lwrist 7.52595
lhand -15.6371 0.468432
lfingers 7.12502
lthumb 10.5502 30.1836
rfemur -33.3719 -7.61481 11.2349
rtibia 26.192
rfoot 13.8757 -19.22
rtoes -5.86297
lfemur 9.83986 -3.50321 -24.0695
ltibia 8.12163
lfoot -5.97704 4.95774
ltoes -13.5051
242
root 1.55399 18.0767 -28.5667 0.999108 14.5597 1.72465
lowerback 5.43517 -2.96166 -15.4747
upperback 0.864493 -4.79386 2.51063
thorax -0.63939 -2.41147 11.6876
lowerneck -19.7516 6.76499 6.1104
upperneck 25.0494 11.1336 -11.5226
head 12.677 4.09683 -3.50464
rclavicle 4.27946e-014 9.79014e-015
rhumerus -29.2792 1.33932 -75.5635
rradius 24.1912
rwrist -4.27901
rhand -16.0264 -3.38693
rfingers 7.12502
rthumb 10.1747 -33.1209
lclavicle 4.27946e-014 9.79014e-015
lhumerus -41.0972 20.0492 81.1605
lradius 29.1166
lwrist 7.43388
lhand -15.6609 0.540656
lfingers 7.12502
lthumb 10.5273 30.257
rfemur -33.2946 -7.62198 11.2281
rtibia 26.2289
rfoot 14.6384 -19.0633
rtoes -5.59105
lfemur 10.1658 -3.68038 -24.0754
ltibia 7.79959
lfoot -5.84931 5.04414
ltoes -13.6467
243
root 1.5408 18.0737 -28.5142 1.02059 14.6208 1.78938
lowerback 5.35432 -2.96476 -15.4984
upperback 0.898762 -4.78377 2.48754
thorax -0.559944 -2.41522 11.6672
lowerneck -20.2647 6.54367 5.33637
upperneck 25.2154 10.8805 -10.8982
head 12.7249 3.96335 -3.17274
rclavicle 6.50771e-014 7.30534e-015
rhumerus -29.1683 1.39382 -75.5062
rradius 24.2987
rwrist -4.38451
rhand -16.055 -3.35942
rfingers 7.12502
rthumb 10.1471 -33.0947
lclavicle 6.50771e-014 7.30534e-015
lhumerus -41.1281 20.1514 81.1451
lradius 28.9776
lwrist 7.32152
lhand -15.6877 0.636385
lfingers 7.12502
lthumb 10.5014 30.3541
rfemur -33.2055 -7.64491 11.2211
rtibia 26.2626
rfoot 15.3864 -18.9303
rtoes -5.33671
lfemur 10.5081 -3.86344 -24.0904
ltibia 7.45394
lfoot -5.71322 5.12958
ltoes -13.7933
244
root 1.52711 18.0705 -28.4606 1.0477 14.6784 1.84557
lowerback 5.27534 -2.96694 -15.5032
upperback 0.944033 -4.77077 2.47144
thorax -0.471472 -2.41903 11.6435
lowerneck -21.1828 6.09583 3.93221
upperneck 25.519 10.3704 -9.75116
head 12.8164 3.70474 -2.57666
rclavicle 4.95191e-014 9.64106e-015
rhumerus -29.0241 1.43565 -75.4465
rradius 24.4093
rwrist -4.4816
rhand -16.0729 -3.30993
rfingers 7.12502
rthumb 10.1298 -33.0461
lclavicle 4.95191e-014 9.64106e-015
lhumerus -41.1163 20.2541 81.1514
lradius 28.829
lwrist 7.20891
lhand -15.6777 0.744436
lfingers 7.12502
lthumb 10.511 30.4616
rfemur -33.1166 -7.66618 11.2328
rtibia 26.2948
rfoot 16.1136 -18.8335
rtoes -5.08465
lfemur 10.8544 -4.04426 -24.0941
ltibia 7.08871
lfoot -5.56551 5.21394
ltoes -13.9414
245
root 1.51332 18.0675 -28.4061 1.07909 14.7324 1.89881
lowerback 5.20854 -2.98096 -15.4998
upperback 0.955843 -4.77747 2.46182
thorax -0.420096 -2.42747 11.6248
lowerneck -22.3882 5.40343 1.97444
upperneck 25.9992 9.60845 -8.14156
head 12.9761 3.33151 -1.75517
rclavicle 6.6158e-015 5.26779e-015
rhumerus -28.9375 1.5215 -75.3977
rradius 24.5305
rwrist -4.58584
rhand -16.089 -3.23511
rfingers 7.12502
rthumb 10.1143 -32.972
lclavicle 6.6158e-015 5.26779e-015
lhumerus -41.1794 20.3606 81.139
lradius 28.6895
lwrist 7.09823
lhand -15.6353 0.818407
lfingers 7.12502
lthumb 10.552 30.5335
rfemur -33.0223 -7.68651 11.253
rtibia 26.3237
rfoot 16.8078 -18.7765
rtoes -4.81562
lfemur 11.1897 -4.22227 -24.0938
ltibia 6.73683
lfoot -5.42437 5.29962
ltoes -14.0991
246
root 1.49938 18.0645 -28.3507 1.11934 14.795 1.95248
lowerback 5.15242 -2.98087 -15.5022
upperback 0.950998 -4.76863 2.45079
thorax -0.397304 -2.42455 11.6096
lowerneck -23.7693 4.49582 -0.253351
upperneck 26.5985 8.63272 -6.31067
head 13.2206 2.86669 -0.839703
rclavicle -4.45526e-014 -6.65929e-015
rhumerus -28.8885 1.56144 -75.3465
rradius 24.6584
rwrist -4.71044
rhand -16.1132 -3.16728
rfingers 7.12502
rthumb 10.091 -32.9053
lclavicle -4.45526e-014 -6.65929e-015
lhumerus -41.2538 20.4067 81.1345
lradius 28.5443
lwrist 6.98037
lhand -15.5155 0.846965
lfingers 7.12502
lthumb 10.6675 30.5562
rfemur -32.9235 -7.71643 11.2769
rtibia 26.3497
rfoot 17.4599 -18.7611
rtoes -4.53233
lfemur 11.5002 -4.4098 -24.0929
ltibia 6.41541
lfoot -5.29437 5.38715
ltoes -14.2684
247
root 1.48494 18.0615 -28.2954 1.17501 14.8634 1.99194
lowerback 5.10224 -3.1353 -15.4505
upperback 0.892912 -4.96713 2.5427
thorax -0.36551 -2.52441 11.6812
lowerneck -25.0265 3.75825 -2.48832
upperneck 27.1808 8.03359 -4.7016
head 13.5049 2.54507 0.0641263
rclavicle 2.28571e-014 -1.44305e-014
rhumerus -28.7665 2.20431 -75.3229
rradius 24.7919
rwrist -4.95871
rhand -16.1301 -3.13695
rfingers 7.12502
rthumb 10.0746 -32.8758
lclavicle 2.28571e-014 -1.44305e-014
lhumerus -41.5436 20.9509 81.0584
lradius 28.4508
lwrist 6.80787
lhand -15.378 0.823882
lfingers 7.12502
lthumb 10.8001 30.5262
rfemur -32.8381 -7.75226 11.3249
rtibia 26.3757
rfoot 18.0924 -18.7786
rtoes -4.28263
lfemur 11.7683 -4.60513 -24.0726
ltibia 6.12969
lfoot -5.17193 5.47353
ltoes -14.4387
248
root 1.47015 18.0586 -28.2399 1.25268 14.947 2.04155
lowerback 5.03637 -3.25955 -15.4046
upperback 0.826641 -5.12393 2.60842
thorax -0.34862 -2.60125 11.7254
lowerneck -25.9599 3.18648 -4.10027
upperneck 27.669 7.59614 -3.56266
head 13.7662 2.3063 0.712652
rclavicle 1.15606e-014 -8.19987e-015
rhumerus -28.6936 2.69871 -75.3018
rradius 24.9303
rwrist -5.20049
rhand -16.1462 -3.14364
rfingers 7.12502
rthumb 10.0591 -32.8832
lclavicle 1.15606e-014 -8.19987e-015
lhumerus -41.8006 21.3502 80.9907
lradius 28.334
lwrist 6.62794
lhand -15.2521 0.782833
lfingers 7.12502
lthumb 10.9216 30.4788
rfemur -32.764 -7.81149 11.3694
rtibia 26.4059
rfoot 18.7181 -18.801
rtoes -4.05458
lfemur 11.996 -4.81733 -24.0598
ltibia 5.87608
lfoot -5.05849 5.55846
ltoes -14.6257
249
root 1.45482 18.0554 -28.1845 1.34481 15.0366 2.0934
lowerback 4.95839 -3.37233 -15.3522
upperback 0.769094 -5.26262 2.66587
thorax -0.322454 -2.67024 11.7548
lowerneck -26.5698 2.8438 -5.12742
upperneck 28.0351 7.3918 -2.8956
head 13.9719 2.17481 1.12101
rclavicle 4.55155e-014 1.44119e-015
rhumerus -28.6139 3.12366 -75.2823
rradius 25.0727
rwrist -5.43547
rhand -16.1461 -3.13925
rfingers 7.12502
rthumb 10.0592 -32.8788
lclavicle 4.55155e-014 1.44119e-015
lhumerus -42.0062 21.6998 80.9331
lradius 28.1932
lwrist 6.43229
lhand -15.1455 0.729581
lfingers 7.12502
lthumb 11.0244 30.4201
rfemur -32.7038 -7.8839 11.4205
rtibia 26.4473
rfoot 19.3407 -18.8348
rtoes -3.83416
lfemur 12.1994 -5.03681 -24.0471
ltibia 5.63968
lfoot -4.94809 5.64143
ltoes -14.8075
250
root 1.43941 18.0518 -28.1279 1.44614 15.1135 2.15097
lowerback 4.86017 -3.42522 -15.3217
upperback 0.721767 -5.31886 2.68484
thorax -0.301609 -2.69749 11.7519
lowerneck -26.5584 2.83247 -5.27843
upperneck 28.0457 7.43115 -2.86597
head 13.9668 2.1794 1.1647
rclavicle 8.60365e-015 2.14687e-014
rhumerus -28.5849 3.30059 -75.262
rradius 25.2207
rwrist -5.61846
rhand -16.1434 -3.14546
rfingers 7.12502
rthumb 10.0618 -32.8849
lclavicle 8.60365e-015 2.14687e-014
lhumerus -42.1395 21.8435 80.8916
lradius 28.0304
lwrist 6.25531
lhand -15.0706 0.698945
lfingers 7.12502
lthumb 11.0966 30.3856
rfemur -32.6535 -7.96158 11.4751
rtibia 26.51
rfoot 19.9559 -18.8731
rtoes -3.59661
lfemur 12.4148 -5.24448 -24.0404
ltibia 5.37609
lfoot -4.819 5.72123
ltoes -15.0123
251
root 1.42412 18.0478 -28.0701 1.56192 15.1854 2.2343
lowerback 4.75419 -3.40329 -15.3529
upperback 0.678077 -5.27716 2.65724
thorax -0.302261 -2.67334 11.7326
lowerneck -26.5088 2.77282 -5.22885
upperneck 28.0449 7.3342 -2.90803
head 13.9622 2.13809 1.12051
rclavicle -3.77629e-014 3.37934e-015
rhumerus -28.6353 3.1833 -75.2319
rradius 25.3783
rwrist -5.73137
rhand -16.1378 -3.14233
rfingers 7.12502
rthumb 10.0672 -32.8815
lclavicle -3.77629e-014 3.37934e-015
lhumerus -42.2023 21.7289 80.8771
lradius 27.8415
lwrist 6.08051
lhand -15.0292 0.666467
lfingers 7.12502
lthumb 11.1365 30.351
rfemur -32.6132 -8.05692 11.5095
rtibia 26.5985
rfoot 20.5248 -18.9146
rtoes -3.39359
lfemur 12.6486 -5.44798 -24.0644
ltibia 5.07638
lfoot -4.67299 5.79876
ltoes -15.2142
252
root 1.4088 18.0432 -28.0106 1.67529 15.2537 2.32842
lowerback 4.66599 -3.32792 -15.4171
upperback 0.635692 -5.16871 2.59815
thorax -0.332654 -2.61279 11.6994
lowerneck -26.4071 2.69954 -5.00704
upperneck 27.984 7.15522 -3.01322
head 13.9313 2.07507 1.0059
rclavicle -1.19581e-014 4.67144e-014
rhumerus -28.7509 2.86896 -75.1987
rradius 25.5495
rwrist -5.80828
rhand -16.1222 -3.13164
rfingers 7.12502
rthumb 10.0822 -32.8701
lclavicle -1.19581e-014 4.67144e-014
lhumerus -42.2286 21.4366 80.8765
lradius 27.6564
lwrist 5.93898
lhand -15.0054 0.672309
lfingers 7.12502
lthumb 11.1596 30.3555
rfemur -32.5631 -8.15225 11.5341
rtibia 26.7129
rfoot 20.9657 -18.9381
rtoes -3.33984
lfemur 12.9256 -5.64788 -24.1029
ltibia 4.72363
lfoot -4.5057 5.87308
ltoes -15.4218
